<mxfile host="app.diagrams.net" modified="2022-11-18T02:41:29.118Z" agent="5.0 (Windows NT 10.0; Win64; x64) AppleWebKit/537.36 (KHTML, like Gecko) Chrome/107.0.0.0 Safari/537.36" etag="9Lt-cc0sLqRVep5Ns3_5" version="20.5.3" type="github">
  <diagram id="aUBuHN6MXLQGVr44WZyo" name="第 1 页">
    <mxGraphModel dx="651" dy="644" grid="1" gridSize="10" guides="1" tooltips="1" connect="1" arrows="1" fold="1" page="0" pageScale="1" pageWidth="827" pageHeight="1169" math="0" shadow="0">
      <root>
        <mxCell id="0" />
        <mxCell id="1" parent="0" />
        <mxCell id="XFE-MpF_bWx7WAoScGuX-34" style="edgeStyle=orthogonalEdgeStyle;rounded=0;orthogonalLoop=1;jettySize=auto;html=1;entryX=0.5;entryY=0;entryDx=0;entryDy=0;" parent="1" source="XFE-MpF_bWx7WAoScGuX-35" target="XFE-MpF_bWx7WAoScGuX-42" edge="1">
          <mxGeometry relative="1" as="geometry" />
        </mxCell>
        <mxCell id="XFE-MpF_bWx7WAoScGuX-35" value="第一次检测" style="rounded=1;whiteSpace=wrap;html=1;" parent="1" vertex="1">
          <mxGeometry x="745" y="80" width="160" height="30" as="geometry" />
        </mxCell>
        <mxCell id="XFE-MpF_bWx7WAoScGuX-36" value="" style="edgeStyle=orthogonalEdgeStyle;rounded=0;orthogonalLoop=1;jettySize=auto;html=1;" parent="1" source="XFE-MpF_bWx7WAoScGuX-37" target="XFE-MpF_bWx7WAoScGuX-40" edge="1">
          <mxGeometry relative="1" as="geometry" />
        </mxCell>
        <mxCell id="XFE-MpF_bWx7WAoScGuX-37" value="检测填写的手机号是否重复" style="rounded=1;whiteSpace=wrap;html=1;" parent="1" vertex="1">
          <mxGeometry x="745" y="210" width="160" height="30" as="geometry" />
        </mxCell>
        <mxCell id="XFE-MpF_bWx7WAoScGuX-38" style="edgeStyle=orthogonalEdgeStyle;rounded=0;orthogonalLoop=1;jettySize=auto;html=1;exitX=0.5;exitY=1;exitDx=0;exitDy=0;" parent="1" source="XFE-MpF_bWx7WAoScGuX-40" target="XFE-MpF_bWx7WAoScGuX-44" edge="1">
          <mxGeometry relative="1" as="geometry" />
        </mxCell>
        <mxCell id="XFE-MpF_bWx7WAoScGuX-39" style="edgeStyle=orthogonalEdgeStyle;rounded=0;orthogonalLoop=1;jettySize=auto;html=1;exitX=0.5;exitY=1;exitDx=0;exitDy=0;entryX=0.5;entryY=0;entryDx=0;entryDy=0;entryPerimeter=0;" parent="1" source="XFE-MpF_bWx7WAoScGuX-40" target="XFE-MpF_bWx7WAoScGuX-55" edge="1">
          <mxGeometry relative="1" as="geometry">
            <mxPoint x="910" y="390" as="targetPoint" />
            <Array as="points">
              <mxPoint x="825" y="340" />
              <mxPoint x="932" y="340" />
            </Array>
          </mxGeometry>
        </mxCell>
        <mxCell id="XFE-MpF_bWx7WAoScGuX-40" value="填写的小区名称是否存在" style="whiteSpace=wrap;html=1;rounded=1;" parent="1" vertex="1">
          <mxGeometry x="745" y="260" width="160" height="30" as="geometry" />
        </mxCell>
        <mxCell id="XFE-MpF_bWx7WAoScGuX-41" style="edgeStyle=orthogonalEdgeStyle;rounded=0;orthogonalLoop=1;jettySize=auto;html=1;" parent="1" source="XFE-MpF_bWx7WAoScGuX-42" target="XFE-MpF_bWx7WAoScGuX-37" edge="1">
          <mxGeometry relative="1" as="geometry" />
        </mxCell>
        <mxCell id="XFE-MpF_bWx7WAoScGuX-42" value="必填字段的非空判断" style="rounded=1;whiteSpace=wrap;html=1;" parent="1" vertex="1">
          <mxGeometry x="752.5" y="140" width="145" height="40" as="geometry" />
        </mxCell>
        <mxCell id="XFE-MpF_bWx7WAoScGuX-43" style="edgeStyle=orthogonalEdgeStyle;rounded=0;orthogonalLoop=1;jettySize=auto;html=1;entryX=0.5;entryY=0;entryDx=0;entryDy=0;" parent="1" source="XFE-MpF_bWx7WAoScGuX-44" target="XFE-MpF_bWx7WAoScGuX-47" edge="1">
          <mxGeometry relative="1" as="geometry" />
        </mxCell>
        <mxCell id="XFE-MpF_bWx7WAoScGuX-44" value="第一次过滤获得的成功数据" style="shape=cylinder3;whiteSpace=wrap;html=1;boundedLbl=1;backgroundOutline=1;size=15;" parent="1" vertex="1">
          <mxGeometry x="685" y="390" width="110" height="80" as="geometry" />
        </mxCell>
        <mxCell id="XFE-MpF_bWx7WAoScGuX-45" style="edgeStyle=orthogonalEdgeStyle;rounded=0;orthogonalLoop=1;jettySize=auto;html=1;exitX=0.5;exitY=1;exitDx=0;exitDy=0;" parent="1" source="XFE-MpF_bWx7WAoScGuX-47" target="XFE-MpF_bWx7WAoScGuX-49" edge="1">
          <mxGeometry relative="1" as="geometry" />
        </mxCell>
        <mxCell id="XFE-MpF_bWx7WAoScGuX-46" style="edgeStyle=orthogonalEdgeStyle;rounded=0;orthogonalLoop=1;jettySize=auto;html=1;exitX=0.5;exitY=1;exitDx=0;exitDy=0;" parent="1" source="XFE-MpF_bWx7WAoScGuX-47" target="XFE-MpF_bWx7WAoScGuX-51" edge="1">
          <mxGeometry relative="1" as="geometry" />
        </mxCell>
        <mxCell id="XFE-MpF_bWx7WAoScGuX-47" value="检测是否与数据库中的手机号重复" style="rounded=1;whiteSpace=wrap;html=1;" parent="1" vertex="1">
          <mxGeometry x="680" y="510" width="120" height="40" as="geometry" />
        </mxCell>
        <mxCell id="XFE-MpF_bWx7WAoScGuX-48" style="edgeStyle=orthogonalEdgeStyle;rounded=0;orthogonalLoop=1;jettySize=auto;html=1;" parent="1" source="XFE-MpF_bWx7WAoScGuX-49" edge="1">
          <mxGeometry relative="1" as="geometry">
            <mxPoint x="655" y="690" as="targetPoint" />
          </mxGeometry>
        </mxCell>
        <mxCell id="XFE-MpF_bWx7WAoScGuX-49" value="未重复数据" style="shape=cylinder3;whiteSpace=wrap;html=1;boundedLbl=1;backgroundOutline=1;size=15;" parent="1" vertex="1">
          <mxGeometry x="605" y="595" width="100" height="60" as="geometry" />
        </mxCell>
        <mxCell id="XFE-MpF_bWx7WAoScGuX-50" style="edgeStyle=orthogonalEdgeStyle;rounded=0;orthogonalLoop=1;jettySize=auto;html=1;" parent="1" source="XFE-MpF_bWx7WAoScGuX-51" target="XFE-MpF_bWx7WAoScGuX-62" edge="1">
          <mxGeometry relative="1" as="geometry">
            <Array as="points">
              <mxPoint x="805" y="810" />
              <mxPoint x="740" y="810" />
            </Array>
            <mxPoint x="740.0000000000002" y="810" as="targetPoint" />
          </mxGeometry>
        </mxCell>
        <mxCell id="XFE-MpF_bWx7WAoScGuX-51" value="手机号重复数据" style="shape=cylinder3;whiteSpace=wrap;html=1;boundedLbl=1;backgroundOutline=1;size=15;" parent="1" vertex="1">
          <mxGeometry x="745" y="595" width="120" height="55" as="geometry" />
        </mxCell>
        <mxCell id="XFE-MpF_bWx7WAoScGuX-52" style="edgeStyle=orthogonalEdgeStyle;rounded=0;orthogonalLoop=1;jettySize=auto;html=1;startArrow=none;" parent="1" source="XFE-MpF_bWx7WAoScGuX-65" target="XFE-MpF_bWx7WAoScGuX-62" edge="1">
          <mxGeometry relative="1" as="geometry">
            <mxPoint x="740.0000000000002" y="810" as="targetPoint" />
          </mxGeometry>
        </mxCell>
        <mxCell id="XFE-MpF_bWx7WAoScGuX-53" value="插入居民表" style="rounded=1;whiteSpace=wrap;html=1;" parent="1" vertex="1">
          <mxGeometry x="600" y="690" width="105" height="40" as="geometry" />
        </mxCell>
        <mxCell id="XFE-MpF_bWx7WAoScGuX-60" style="edgeStyle=orthogonalEdgeStyle;rounded=0;orthogonalLoop=1;jettySize=auto;html=1;exitX=0.5;exitY=1;exitDx=0;exitDy=0;" parent="1" target="XFE-MpF_bWx7WAoScGuX-59" edge="1">
          <mxGeometry relative="1" as="geometry">
            <mxPoint x="729.9999999999998" y="990" as="sourcePoint" />
            <Array as="points">
              <mxPoint x="741" y="990" />
            </Array>
          </mxGeometry>
        </mxCell>
        <mxCell id="XFE-MpF_bWx7WAoScGuX-57" style="edgeStyle=orthogonalEdgeStyle;rounded=0;orthogonalLoop=1;jettySize=auto;html=1;entryX=0.5;entryY=0;entryDx=0;entryDy=0;" parent="1" source="XFE-MpF_bWx7WAoScGuX-55" target="XFE-MpF_bWx7WAoScGuX-58" edge="1">
          <mxGeometry relative="1" as="geometry">
            <mxPoint x="915" y="775" as="targetPoint" />
          </mxGeometry>
        </mxCell>
        <mxCell id="XFE-MpF_bWx7WAoScGuX-55" value="失败数据" style="shape=cylinder3;whiteSpace=wrap;html=1;boundedLbl=1;backgroundOutline=1;size=15;" parent="1" vertex="1">
          <mxGeometry x="867.5" y="395" width="130" height="70" as="geometry" />
        </mxCell>
        <mxCell id="XFE-MpF_bWx7WAoScGuX-58" value="写入导入失败记录" style="rounded=1;whiteSpace=wrap;html=1;" parent="1" vertex="1">
          <mxGeometry x="880" y="1050" width="105" height="40" as="geometry" />
        </mxCell>
        <mxCell id="XFE-MpF_bWx7WAoScGuX-59" value="插入中间表" style="rounded=1;whiteSpace=wrap;html=1;" parent="1" vertex="1">
          <mxGeometry x="666.25" y="1050" width="150" height="40" as="geometry" />
        </mxCell>
        <mxCell id="XFE-MpF_bWx7WAoScGuX-63" style="edgeStyle=orthogonalEdgeStyle;rounded=0;orthogonalLoop=1;jettySize=auto;html=1;exitX=1;exitY=0.5;exitDx=0;exitDy=0;entryX=0.5;entryY=0;entryDx=0;entryDy=0;" parent="1" source="XFE-MpF_bWx7WAoScGuX-62" target="XFE-MpF_bWx7WAoScGuX-58" edge="1">
          <mxGeometry relative="1" as="geometry" />
        </mxCell>
        <mxCell id="XFE-MpF_bWx7WAoScGuX-64" value="Y" style="edgeLabel;html=1;align=center;verticalAlign=middle;resizable=0;points=[];" parent="XFE-MpF_bWx7WAoScGuX-63" vertex="1" connectable="0">
          <mxGeometry x="-0.7597" y="-1" relative="1" as="geometry">
            <mxPoint as="offset" />
          </mxGeometry>
        </mxCell>
        <mxCell id="XFE-MpF_bWx7WAoScGuX-62" value="检测是否重复插入过成员" style="rhombus;whiteSpace=wrap;html=1;" parent="1" vertex="1">
          <mxGeometry x="652.5" y="950" width="175" height="50" as="geometry" />
        </mxCell>
        <mxCell id="XFE-MpF_bWx7WAoScGuX-65" value="合并所有居民id" style="rounded=1;whiteSpace=wrap;html=1;" parent="1" vertex="1">
          <mxGeometry x="666.25" y="870" width="147.5" height="30" as="geometry" />
        </mxCell>
        <mxCell id="S9MntMNMVdMsf80aEHKJ-3" value="" style="edgeStyle=orthogonalEdgeStyle;rounded=0;orthogonalLoop=1;jettySize=auto;html=1;endArrow=none;" parent="1" source="XFE-MpF_bWx7WAoScGuX-53" target="XFE-MpF_bWx7WAoScGuX-65" edge="1">
          <mxGeometry relative="1" as="geometry">
            <mxPoint x="740" y="950" as="targetPoint" />
            <mxPoint x="652.5" y="730" as="sourcePoint" />
          </mxGeometry>
        </mxCell>
        <mxCell id="S9MntMNMVdMsf80aEHKJ-4" value="查出居民表的id" style="rounded=1;whiteSpace=wrap;html=1;" parent="1" vertex="1">
          <mxGeometry x="680" y="790" width="110" height="40" as="geometry" />
        </mxCell>
        <mxCell id="_E3xaCXyAKDLWRKXDZtY-1" value="Actor" style="shape=umlActor;verticalLabelPosition=bottom;verticalAlign=top;html=1;outlineConnect=0;" vertex="1" parent="1">
          <mxGeometry x="1370" y="615" width="30" height="60" as="geometry" />
        </mxCell>
        <mxCell id="_E3xaCXyAKDLWRKXDZtY-7" value="" style="endArrow=classic;html=1;rounded=0;" edge="1" parent="1">
          <mxGeometry width="50" height="50" relative="1" as="geometry">
            <mxPoint x="1460" y="627.5" as="sourcePoint" />
            <mxPoint x="1570" y="617.5" as="targetPoint" />
          </mxGeometry>
        </mxCell>
        <mxCell id="_E3xaCXyAKDLWRKXDZtY-12" style="edgeStyle=orthogonalEdgeStyle;rounded=0;orthogonalLoop=1;jettySize=auto;html=1;exitX=1;exitY=0.5;exitDx=0;exitDy=0;" edge="1" parent="1" source="_E3xaCXyAKDLWRKXDZtY-10" target="_E3xaCXyAKDLWRKXDZtY-11">
          <mxGeometry relative="1" as="geometry" />
        </mxCell>
        <mxCell id="_E3xaCXyAKDLWRKXDZtY-10" value="服务器" style="rounded=0;whiteSpace=wrap;html=1;" vertex="1" parent="1">
          <mxGeometry x="1600" y="545" width="80" height="160" as="geometry" />
        </mxCell>
        <mxCell id="_E3xaCXyAKDLWRKXDZtY-14" style="edgeStyle=orthogonalEdgeStyle;rounded=0;orthogonalLoop=1;jettySize=auto;html=1;exitX=1;exitY=0.5;exitDx=0;exitDy=0;" edge="1" parent="1" source="_E3xaCXyAKDLWRKXDZtY-11" target="_E3xaCXyAKDLWRKXDZtY-13">
          <mxGeometry relative="1" as="geometry" />
        </mxCell>
        <mxCell id="_E3xaCXyAKDLWRKXDZtY-11" value="一次获取所有的图片URL地址" style="rounded=1;whiteSpace=wrap;html=1;" vertex="1" parent="1">
          <mxGeometry x="1780" y="595" width="120" height="60" as="geometry" />
        </mxCell>
        <mxCell id="_E3xaCXyAKDLWRKXDZtY-23" style="edgeStyle=orthogonalEdgeStyle;rounded=0;orthogonalLoop=1;jettySize=auto;html=1;exitX=0.5;exitY=1;exitDx=0;exitDy=0;entryX=1.015;entryY=0.844;entryDx=0;entryDy=0;entryPerimeter=0;" edge="1" parent="1" source="_E3xaCXyAKDLWRKXDZtY-13" target="_E3xaCXyAKDLWRKXDZtY-10">
          <mxGeometry relative="1" as="geometry" />
        </mxCell>
        <mxCell id="_E3xaCXyAKDLWRKXDZtY-13" value="输出流一次输出所有图片" style="rounded=1;whiteSpace=wrap;html=1;" vertex="1" parent="1">
          <mxGeometry x="1940" y="595" width="120" height="60" as="geometry" />
        </mxCell>
        <mxCell id="_E3xaCXyAKDLWRKXDZtY-22" value="应知id" style="text;html=1;align=center;verticalAlign=middle;resizable=0;points=[];autosize=1;strokeColor=none;fillColor=none;" vertex="1" parent="1">
          <mxGeometry x="1460" y="585" width="60" height="30" as="geometry" />
        </mxCell>
        <mxCell id="_E3xaCXyAKDLWRKXDZtY-26" value="输出流输出所有图片" style="text;html=1;align=center;verticalAlign=middle;resizable=0;points=[];autosize=1;strokeColor=none;fillColor=none;" vertex="1" parent="1">
          <mxGeometry x="1460" y="650" width="130" height="30" as="geometry" />
        </mxCell>
        <mxCell id="_E3xaCXyAKDLWRKXDZtY-29" value="" style="endArrow=classic;html=1;rounded=0;" edge="1" parent="1">
          <mxGeometry width="50" height="50" relative="1" as="geometry">
            <mxPoint x="1580" y="690" as="sourcePoint" />
            <mxPoint x="1440" y="690" as="targetPoint" />
          </mxGeometry>
        </mxCell>
      </root>
    </mxGraphModel>
  </diagram>
</mxfile>
